<svg xmlns="http://www.w3.org/2000/svg" width="1920" height="1080" viewBox="0 0 1920 1080">
  <defs>
    <linearGradient id="base" x1="0" y1="0" x2="1" y2="1">
      <stop offset="0" stop-color="#05040a"/>
      <stop offset="0.55" stop-color="#050508"/>
      <stop offset="1" stop-color="#030309"/>
    </linearGradient>

    <radialGradient id="redGlow" cx="0.18" cy="0.62" r="0.75">
      <stop offset="0" stop-color="#f87171" stop-opacity="0.55"/>
      <stop offset="0.35" stop-color="#f87171" stop-opacity="0.18"/>
      <stop offset="1" stop-color="#f87171" stop-opacity="0"/>
    </radialGradient>

    <radialGradient id="greenGlow" cx="0.86" cy="0.50" r="0.80">
      <stop offset="0" stop-color="#22c55e" stop-opacity="0.55"/>
      <stop offset="0.35" stop-color="#22c55e" stop-opacity="0.18"/>
      <stop offset="1" stop-color="#22c55e" stop-opacity="0"/>
    </radialGradient>

    <linearGradient id="splitLine" x1="0" y1="0" x2="1" y2="0">
      <stop offset="0" stop-color="#f87171" stop-opacity="0"/>
      <stop offset="0.5" stop-color="#a5b4fc" stop-opacity="0.18"/>
      <stop offset="1" stop-color="#22c55e" stop-opacity="0"/>
    </linearGradient>

    <filter id="blur60" x="-30%" y="-30%" width="160%" height="160%">
      <feGaussianBlur stdDeviation="60"/>
    </filter>

    <filter id="softNoise" x="-20%" y="-20%" width="140%" height="140%">
      <feTurbulence type="fractalNoise" baseFrequency="0.8" numOctaves="2" stitchTiles="stitch" result="n"/>
      <feColorMatrix in="n" type="matrix"
        values="0 0 0 0 0
                0 0 0 0 0
                0 0 0 0 0
                0 0 0 0.10 0" result="a"/>
      <feComposite in="a" in2="SourceGraphic" operator="over"/>
    </filter>
  </defs>

  <!-- Base -->
  <rect width="1920" height="1080" fill="url(#base)"/>

  <!-- Glows -->
  <g filter="url(#blur60)">
    <rect width="1920" height="1080" fill="url(#redGlow)"/>
    <rect width="1920" height="1080" fill="url(#greenGlow)"/>
  </g>

  <!-- Soft wave ribbons (no text) -->
  <path d="M0,820 C420,720 720,980 1060,820 C1400,660 1600,700 1920,620 L1920,1080 L0,1080 Z"
        fill="#f87171" fill-opacity="0.08"/>
  <path d="M0,900 C420,780 820,1060 1180,880 C1540,700 1700,780 1920,720 L1920,1080 L0,1080 Z"
        fill="#22c55e" fill-opacity="0.07"/>

  <!-- Diagonal split highlight -->
  <g opacity="0.6">
    <rect x="-200" y="0" width="2400" height="6" fill="url(#splitLine)" transform="rotate(25 960 540) translate(0 530)"/>
  </g>

  <!-- Vignette for readability -->
  <radialGradient id="v" cx="0.5" cy="0.45" r="0.72">
    <stop offset="0" stop-color="#000" stop-opacity="0.25"/>
    <stop offset="0.55" stop-color="#000" stop-opacity="0.62"/>
    <stop offset="1" stop-color="#000" stop-opacity="0.82"/>
  </radialGradient>
  <rect width="1920" height="1080" fill="url(#v)"/>

  <!-- Subtle noise to avoid banding -->
  <rect width="1920" height="1080" fill="transparent" filter="url(#softNoise)"/>
</svg>

